Coordinates
version=1
nRows=8
nColumns=36
inDegrees=yes

Units are S.I. units (second, meters, Newtons, ...)
If the header above contains a line with 'inDegrees', this indicates whether rotational values are in degrees (yes) or radians (no).

endheader
time	pelvis_tilt	pelvis_list	pelvis_rotation	pelvis_tx	pelvis_ty	pelvis_tz	hip_flexion_r	hip_adduction_r	hip_rotation_r	knee_angle_r	knee_angle_r_beta	ankle_angle_r	subtalar_angle_r	mtp_angle_r	hip_flexion_l	hip_adduction_l	hip_rotation_l	knee_angle_l	knee_angle_l_beta	ankle_angle_l	subtalar_angle_l	mtp_angle_l	lumbar_extension	lumbar_bending	lumbar_rotation	arm_flex_r	arm_add_r	arm_rot_r	elbow_flex_r	pro_sup_r	arm_flex_l	arm_add_l	arm_rot_l	elbow_flex_l	pro_sup_l
      2.76666670	     -0.31244021	     -1.74829022	     -1.08202349	      0.61412456	      0.46991985	     -0.07496594	     83.27554035	    -13.25232273	      1.98198411	    124.93702717	      2.18056248	     45.17404560	     -0.12154053	     -7.49999987	     89.26322040	    -15.85505776	     11.16846705	    123.20478113	      2.15032908	     36.29255837	     -6.09206357	     -7.49999987	    -52.78274449	     -2.38547990	     -0.18543915	     69.98483280	    -10.57002518	     24.71642881	    121.12643196	     92.89876531	     52.11163711	    -14.75663605	     22.14372627	    119.63937113	     84.37364301
      2.78333330	     -1.74389376	     -1.20018270	     -2.00387871	      0.62099942	      0.43682068	     -0.07221612	     88.99755373	    -13.02267881	      4.22133973	    130.20635170	      2.27252954	     46.53579324	      1.14208200	     -7.49999987	     94.91382488	    -17.33823362	     13.19165386	    128.70211077	      2.24627559	     37.88228017	     -3.89137517	     -7.49999987	    -51.96174309	     -3.54828847	     -0.44907667	     77.02659213	     -6.12291342	     24.77093895	    123.04605345	     94.05805528	     63.30099668	    -13.41893533	     24.76312130	    122.88402748	     85.67160714
      2.80000000	     -3.30528821	     -0.70887816	     -2.94597223	      0.63713804	      0.41606190	     -0.07251302	     93.59752822	    -12.65422154	      6.82955394	    134.79127091	      2.35255148	     47.64578266	      2.66946962	     -7.49999987	     99.65849526	    -18.55419658	     15.54472210	    133.54601502	      2.33081766	     38.92422126	     -2.02542000	     -7.49999987	    -50.29532435	     -4.63268294	      0.03185286	     80.64009157	     -2.84464561	     23.20382978	    126.18539189	    103.70120058	     71.83592972	    -11.33501711	     26.98601155	    124.56732208	     97.54262516
      2.81666670	     -4.63876789	     -0.53809107	     -3.79077911	      0.64700858	      0.40159921	     -0.07172552	     96.80827736	    -12.07124708	      8.89793324	    138.10407809	      2.41037087	     47.88852441	      3.20027576	     -7.49999987	    103.14402142	    -19.56603828	     17.87869994	    137.04242889	      2.39184160	     39.89746865	     -0.49030355	     -7.49999987	    -48.54051044	     -5.02538608	      0.29736059	     83.50326180	      0.42766671	     22.94405778	    127.98669768	    103.82927783	     77.59914964	    -10.10593379	     27.21156383	    126.54447969	     97.99776887
      2.83333330	     -6.28977850	     -0.84686786	     -4.48778508	      0.65043781	      0.39239038	     -0.07238859	     99.00781268	    -11.35334630	      9.50264545	    139.59116918	      2.43632551	     47.87274603	      2.84211661	     -7.49999987	    105.81473738	    -20.23279461	     19.83653640	    138.85844319	      2.42353703	     40.88069701	      1.18621717	     -7.49999987	    -46.42293115	     -5.27924865	      1.01970095	     85.23543091	      2.44536644	     21.59191850	    130.47166418	    107.13855799	     82.65458711	     -9.03973658	     28.72575225	    127.69680231	    104.49550748
      2.85000000	     -7.62197982	     -1.25566639	     -5.00351189	      0.65533554	      0.39446748	     -0.07719618	     99.80378406	    -10.76233807	      9.52282300	    139.72715771	      2.43869896	     47.69361600	      2.24442142	     -7.49999987	    106.71371529	    -20.01692168	     20.30629646	    139.32720079	      2.43171839	     40.94959511	      0.78447054	     -7.49999987	    -44.85526035	     -5.11117323	      1.41588710	     86.55286670	      3.42380682	     20.21765141	    132.73363905	    107.22011366	     86.73822856	     -8.00511942	     29.81921954	    127.59946072	    106.10858848
      2.86666670	     -8.47060760	     -1.15144784	     -4.89082124	      0.65682249	      0.40084801	     -0.08029130	    100.01232913	    -10.51951759	      9.99597006	    139.39337470	      2.43287334	     47.57732214	      2.02827741	     -7.49999987	    105.79913590	    -19.25891644	     19.11223418	    138.78638246	      2.42227933	     41.26216297	      0.00552737	     -7.49999987	    -43.60547815	     -5.02425885	      1.14396528	     87.10858201	      3.52312196	     18.58752725	    134.78355814	    107.11070858	     89.81956285	     -7.40470228	     30.70858314	    126.64330972	    106.40126743
      2.88333330	     -9.46539561	     -1.03319314	     -4.71977092	      0.66214506	      0.41308394	     -0.08289118	     99.22301285	    -10.19825255	      9.80897725	    137.77366796	      2.40460413	     47.01721546	      0.91092657	     -7.49999987	    103.99615017	    -18.15815611	     17.13556085	    137.13053685	      2.39337937	     40.87321469	     -2.39891010	     -7.49999987	    -42.34612840	     -4.88941726	      1.02924652	     86.84611395	      2.73082002	     16.78089394	    137.10954504	    105.66057168	     91.59068222	     -7.14061002	     31.87811661	    125.85252294	    104.81156468
